#!OML:ASF H:\Terrain\Patient Classification 1\Terrain2\Thursday\justin.ASF
:FULLY-SPECIFIED
:DEGREES
3587
root 1.95941 20.6161 -11.2322 1052.78 -92.7167 -332.006
lowerback 9.08385 -0.078399 -0.701076
upperback 3.10155 -0.220251 2.21761
thorax -1.86559 -0.166039 2.71284
lowerneck -10.9799 0.863608 -8.73516
upperneck 40.5354 -0.163674 4.19347
head 16.3651 -1.54304 3.20606
rclavicle -6.16232e-015 1.31198e-014
rhumerus -31.3241 -15.0587 -77.7787
rradius 26.5898
rwrist -6.81663
rhand -22.6502 13.6867
rfingers 7.12502
rthumb 3.78094 -16.2595
lclavicle -6.16232e-015 1.31198e-014
lhumerus -29.0583 1.94368 80.9682
lradius 46.2074
lwrist 10.6356
lhand -19.9439 18.7624
lfingers 7.12502
lthumb 6.39393 48.6459
rfemur -20.0756 -0.249767 19.2097
rtibia 39.5502
rfoot -18.5432 5.43606
rtoes 10.5795
lfemur -14.649 1.39048 -18.7618
ltibia 27.8802
lfoot -7.50048 -15.7248
ltoes 21.0983
3588
root 1.9072 20.6119 -11.2592 1059.32 -92.3308 -338.646
lowerback 9.10336 -0.117886 -1.32564
upperback 3.09518 -0.325838 2.16239
thorax -1.87381 -0.218592 3.01991
lowerneck -10.9491 0.892976 -8.93525
upperneck 40.8251 -0.162046 4.31532
head 16.5141 -1.58044 3.3035
rclavicle -3.77691e-015 0
rhumerus -31.1524 -14.9607 -77.8107
rradius 26.1159
rwrist -6.75342
rhand -23.0154 13.2653
rfingers 7.12502
rthumb 3.42822 -16.6869
lclavicle -3.77691e-015 0
lhumerus -28.8054 2.29142 80.9396
lradius 45.7544
lwrist 10.5667
lhand -19.6657 18.5564
lfingers 7.12502
lthumb 6.66258 48.4316
rfemur -19.8959 0.81284 18.6254
rtibia 38.2998
rfoot -18.6688 5.9522
rtoes 7.01264
lfemur -14.3296 1.21539 -19.1175
ltibia 27.8495
lfoot -7.27839 -16.0322
ltoes 23.8077
3589
root 1.85476 20.6001 -11.2895 1058.14 -92.1172 -337.492
lowerback 8.98405 -0.166713 -1.54152
upperback 3.11821 -0.407897 2.21094
thorax -1.77687 -0.261672 3.19953
lowerneck -10.888 0.949099 -9.12456
upperneck 40.9872 -0.128731 4.493
head 16.5821 -1.5862 3.42643
rclavicle -6.95746e-016 -7.95139e-015
rhumerus -30.9551 -15.6324 -77.5953
rradius 25.5428
rwrist -6.13241
rhand -22.6701 13.0212
rfingers 7.12502
rthumb 3.76167 -16.9253
lclavicle -6.95746e-016 -7.95139e-015
lhumerus -28.5364 2.46676 80.9845
lradius 45.4831
lwrist 10.7596
lhand -19.5325 18.9834
lfingers 7.12502
lthumb 6.79111 48.8545
rfemur -19.7263 2.29316 18.4467
rtibia 37.221
rfoot -18.6293 6.26521
rtoes 3.86572
lfemur -14.0614 1.1214 -19.0524
ltibia 27.8127
lfoot -7.41991 -16.2252
ltoes 23.97
3590
root 1.80121 20.5919 -11.3171 1048.39 -91.9364 -327.804
lowerback 8.77284 -0.184494 -1.30058
upperback 3.22821 -0.414116 2.22053
thorax -1.54811 -0.269236 3.07033
lowerneck -10.8225 0.913 -9.02764
upperneck 40.9636 -0.213225 4.49209
head 16.561 -1.60339 3.39405
rclavicle 1.98785e-016 -1.94809e-014
rhumerus -30.7241 -16.5407 -77.4232
rradius 24.9259
rwrist -5.47483
rhand -22.3245 13.0443
rfingers 7.12502
rthumb 4.09543 -16.896
lclavicle 1.98785e-016 -1.94809e-014
lhumerus -28.2395 2.34144 80.9923
lradius 45.3093
lwrist 10.7988
lhand -19.439 19.5636
lfingers 7.12502
lthumb 6.88141 49.4318
rfemur -19.5235 3.28021 18.5986
rtibia 36.2935
rfoot -18.4525 6.55637
rtoes -1.27408
lfemur -13.7832 0.827341 -18.7102
ltibia 27.8188
lfoot -7.62281 -16.3083
ltoes 23.5315
3591
root 1.74655 20.5944 -11.3419 1040.37 -91.6649 -319.894
lowerback 8.55913 -0.202366 -1.14034
upperback 3.33791 -0.428543 2.15691
thorax -1.31789 -0.279675 2.91164
lowerneck -10.8273 0.879064 -8.95445
upperneck 41.1214 -0.310172 4.50917
head 16.6587 -1.63933 3.37817
rclavicle -7.65321e-015 2.62396e-014
rhumerus -30.5076 -16.8033 -77.4222
rradius 24.3838
rwrist -5.21331
rhand -22.1555 13.0045
rfingers 7.12502
rthumb 4.25863 -16.9327
lclavicle -7.65321e-015 2.62396e-014
lhumerus -27.9567 2.41475 81.0045
lradius 44.9357
lwrist 10.617
lhand -19.3701 19.8006
lfingers 7.12502
lthumb 6.94788 49.6666
rfemur -19.2389 3.98797 18.5163
rtibia 35.5196
rfoot -17.9203 7.34798
rtoes -4.97628
lfemur -13.4844 0.509009 -18.5795
ltibia 27.8647
lfoot -7.6203 -16.4596
ltoes 24.1386
3592
root 1.69581 20.5891 -11.3661 1030.33 -91.4495 -309.96
lowerback 8.49105 -0.302443 -0.925254
upperback 3.37235 -0.546314 2.07807
thorax -1.24093 -0.337809 2.71828
lowerneck -10.7856 0.923864 -9.1075
upperneck 41.2875 -0.298829 4.68547
head 16.7373 -1.64871 3.49181
rclavicle -3.77691e-015 1.15295e-014
rhumerus -30.3017 -16.875 -77.5161
rradius 23.7531
rwrist -4.7217
rhand -22.0754 13.0048
rfingers 7.12502
rthumb 4.33593 -16.9308
lclavicle -3.77691e-015 1.15295e-014
lhumerus -27.8582 2.50835 80.9702
lradius 44.6577
lwrist 10.7139
lhand -19.4388 19.8682
lfingers 7.12502
lthumb 6.88154 49.7364
rfemur -18.9114 5.11628 18.3335
rtibia 34.9154
rfoot -16.6532 8.77183
rtoes -2.99565
lfemur -13.2375 0.588339 -18.4294
ltibia 27.9224
lfoot -7.64129 -17.0487
ltoes 24.6849
3593
root 1.64578 20.5853 -11.3913 1014.94 -91.2922 -294.65
lowerback 8.41324 -0.439107 -0.841912
upperback 3.4152 -0.723006 2.0803
thorax -1.14524 -0.427232 2.68834
lowerneck -10.7116 0.963248 -9.19039
upperneck 41.2654 -0.205135 4.64674
head 16.6972 -1.62769 3.5022
rclavicle 1.47101e-014 -3.57812e-015
rhumerus -30.0433 -16.6102 -77.7216
rradius 23.247
rwrist -4.63551
rhand -22.2163 13.1648
rfingers 7.12502
rthumb 4.19987 -16.7736
lclavicle 1.47101e-014 -3.57812e-015
lhumerus -27.723 2.74482 80.9603
lradius 44.3799
lwrist 10.656
lhand -19.3039 19.9677
lfingers 7.12502
lthumb 7.01183 49.8315
rfemur -18.5817 6.28116 18.1689
rtibia 34.4793
rfoot -15.0224 10.3166
rtoes 2.36185
lfemur -13.079 1.04135 -18.2337
ltibia 27.9981
lfoot -7.54062 -18.0441
ltoes 25.3438
3594
root 1.59316 20.5824 -11.4198 996.959 -91.1285 -276.69
lowerback 8.26353 -0.551179 -1.08469
upperback 3.41641 -0.88857 2.14144
thorax -1.04761 -0.512631 2.90113
lowerneck -10.6824 1.03604 -9.11419
upperneck 41.3768 -0.0457865 4.42999
head 16.7372 -1.58729 3.41776
rclavicle 3.08116e-015 -1.63003e-014
rhumerus -29.9235 -16.4666 -77.7672
rradius 22.9591
rwrist -4.51215
rhand -22.3357 13.1401
rfingers 7.12502
rthumb 4.08457 -16.8005
lclavicle 3.08116e-015 -1.63003e-014
lhumerus -27.6438 3.32383 80.966
lradius 44.0539
lwrist 10.2888
lhand -19.1598 20.0029
lfingers 7.12502
lthumb 7.15095 49.8621
rfemur -18.368 6.7791 18.0777
rtibia 34.1805
rfoot -13.5817 11.4072
rtoes 5.94036
lfemur -12.9977 1.18772 -18.1877
ltibia 28.1091
lfoot -7.49265 -18.6641
ltoes 25.138
3595
root 1.54012 20.5739 -11.4495 976.704 -91.2805 -256.516
lowerback 8.24464 -0.649039 -0.969655
upperback 3.3583 -1.00677 2.13108
thorax -1.09261 -0.568659 2.8362
lowerneck -10.671 1.10849 -9.0852
upperneck 41.6231 -0.00458544 4.49685
head 16.8655 -1.57625 3.45621
rclavicle -3.03147e-015 -1.55052e-014
rhumerus -30.0172 -17.1561 -77.6554
rradius 22.6546
rwrist -3.60248
rhand -22.0219 12.6772
rfingers 7.12502
rthumb 4.3876 -17.2573
lclavicle -3.03147e-015 -1.55052e-014
lhumerus -27.7436 3.37507 80.8425
lradius 43.8722
lwrist 10.1475
lhand -19.1091 20.273
lfingers 7.12502
lthumb 7.1998 50.1305
rfemur -18.0556 7.05464 18.3013
rtibia 34.0109
rfoot -12.4236 12.1661
rtoes 9.56879
lfemur -12.8016 0.554212 -17.9643
ltibia 28.1913
lfoot -7.72191 -18.5585
ltoes 24.5677
3596
root 1.48631 20.5661 -11.481 959.288 -91.5687 -239.262
lowerback 8.23131 -0.754019 -0.831286
upperback 3.36362 -1.13583 2.13653
thorax -1.07517 -0.632442 2.77483
lowerneck -10.6371 1.12502 -9.21354
upperneck 41.6718 0.0402962 4.52897
head 16.8799 -1.57686 3.5025
rclavicle -9.98893e-015 1.59028e-014
rhumerus -30.0187 -17.2737 -77.7629
rradius 22.4468
rwrist -3.4867
rhand -21.9379 12.1803
rfingers 7.12502
rthumb 4.46873 -17.7526
lclavicle -9.98893e-015 1.59028e-014
lhumerus -27.7231 3.33057 80.8021
lradius 43.5712
lwrist 9.95346
lhand -19.1053 20.5219
lfingers 7.12502
lthumb 7.20347 50.3793
rfemur -17.5271 7.35445 18.5005
rtibia 33.9019
rfoot -11.8005 12.754
rtoes 14.1917
lfemur -12.5085 0.00852914 -17.7503
ltibia 28.2637
lfoot -7.78902 -18.6466
ltoes 25.4641
3597
root 1.43478 20.5614 -11.5117 945.342 -91.92 -225.406
lowerback 8.13237 -0.840703 -0.808549
upperback 3.37317 -1.24885 2.16016
thorax -1.0045 -0.689456 2.79402
lowerneck -10.5458 1.12598 -9.21549
upperneck 41.5931 0.123651 4.34911
head 16.8073 -1.55918 3.43083
rclavicle -7.45443e-015 7.55382e-015
rhumerus -30.0127 -16.9218 -77.935
rradius 22.3738
rwrist -3.85821
rhand -22.0031 12.0305
rfingers 7.12502
rthumb 4.40581 -17.9037
lclavicle -7.45443e-015 7.55382e-015
lhumerus -27.6073 3.67654 80.8726
lradius 43.1394
lwrist 9.57113
lhand -19.2179 20.1675
lfingers 7.12502
lthumb 7.09478 50.0286
rfemur -17.0217 7.50897 18.592
rtibia 33.7885
rfoot -12.0282 12.7219
rtoes 15.088
lfemur -12.3136 -0.364801 -17.6327
ltibia 28.3288
lfoot -7.90816 -18.8687
ltoes 25.8622
3598
root 1.38711 20.5622 -11.5425 940.207 -92.482 -220.348
lowerback 8.07775 -0.837716 -0.484069
upperback 3.35311 -1.21956 2.14705
thorax -1.00397 -0.671545 2.59397
lowerneck -10.4744 1.07289 -9.0598
upperneck 41.6638 -0.0149489 4.35803
head 16.8425 -1.59341 3.38664
rclavicle 2.72832e-014 -1.31198e-014
rhumerus -30.128 -17.6963 -77.7652
rradius 22.0983
rwrist -3.06596
rhand -21.6506 12.2912
rfingers 7.12502
rthumb 4.74612 -17.6356
lclavicle 2.72832e-014 -1.31198e-014
lhumerus -27.6541 3.25488 80.9887
lradius 43.1403
lwrist 9.63839
lhand -19.3647 20.2181
lfingers 7.12502
lthumb 6.9531 50.0839
rfemur -16.5131 7.74411 18.9279
rtibia 33.6694
rfoot -12.8544 11.4786
rtoes 12.5222
lfemur -12.1422 -0.851329 -17.2597
ltibia 28.3367
lfoot -8.04843 -19.0045
ltoes 26.2612
